HIERARCHY
ROOT Hips
{
	OFFSET -0.001795 -0.223333 0.028219
	CHANNELS 6 Xposition Yposition Zposition Zrotation Yrotation Xrotation 
	JOINT LeftUpLeg
	{
		OFFSET 0.069520 -0.091406 -0.006815
		CHANNELS 3 Zrotation Yrotation Xrotation
		JOINT LeftLeg
		{
			OFFSET 0.034277 -0.375199 -0.004496
			CHANNELS 3 Zrotation Yrotation Xrotation
			JOINT LeftFoot
			{
				OFFSET -0.013596 -0.397961 -0.043693
				CHANNELS 3 Zrotation Yrotation Xrotation
				JOINT LeftToe
				{
					OFFSET 0.026358 -0.055791 0.119288
					CHANNELS 3 Zrotation Yrotation Xrotation
					End Site
					{
						OFFSET 0.000000 0.000000 0.000000
					}
				}
			}
		}
	}
	JOINT RightUpLeg
	{
		OFFSET -0.067670 -0.090522 -0.004320
		CHANNELS 3 Zrotation Yrotation Xrotation
		JOINT RightLeg
		{
			OFFSET -0.038290 -0.382569 -0.008850
			CHANNELS 3 Zrotation Yrotation Xrotation
			JOINT RightFoot
			{
				OFFSET 0.015774 -0.398415 -0.042312
				CHANNELS 3 Zrotation Yrotation Xrotation
				JOINT RightToe
				{
					OFFSET -0.025372 -0.048144 0.123348
					CHANNELS 3 Zrotation Yrotation Xrotation
					End Site
					{
						OFFSET 0.000000 0.000000 0.000000
					}
				}
			}
		}
	}
	JOINT Spine
	{
		OFFSET -0.002533 0.108963 -0.026696
		CHANNELS 3 Zrotation Yrotation Xrotation
		JOINT Spine1
		{
			OFFSET 0.005487 0.135180 0.001092
			CHANNELS 3 Zrotation Yrotation Xrotation
			JOINT Spine2
			{
				OFFSET 0.001457 0.052922 0.025425
				CHANNELS 3 Zrotation Yrotation Xrotation
				JOINT Neck
				{
					OFFSET -0.002778 0.213870 -0.042857
					CHANNELS 3 Zrotation Yrotation Xrotation
					JOINT Head
					{
						OFFSET 0.005152 0.064970 0.051349
						CHANNELS 3 Zrotation Yrotation Xrotation
						End Site
						{
							OFFSET 0.000000 0.000000 0.000000
						}
					}
				}
				JOINT LeftShoulder
				{
					OFFSET 0.078845 0.121749 -0.034090
					CHANNELS 3 Zrotation Yrotation Xrotation
					JOINT LeftArm
					{
						OFFSET 0.090977 0.030469 -0.008868
						CHANNELS 3 Zrotation Yrotation Xrotation
						JOINT LeftForeArm
						{
							OFFSET 0.259612 -0.012772 -0.027456
							CHANNELS 3 Zrotation Yrotation Xrotation
							JOINT LeftHand
							{
								OFFSET 0.249234 0.008986 -0.001171
								CHANNELS 3 Zrotation Yrotation Xrotation
								End Site
								{
									OFFSET 0.000000 0.000000 0.000000
								}
							}
						}
					}
				}
				JOINT RightShoulder
				{
					OFFSET -0.081759 0.118833 -0.038615
					CHANNELS 3 Zrotation Yrotation Xrotation
					JOINT RightArm
					{
						OFFSET -0.096012 0.032551 -0.009143
						CHANNELS 3 Zrotation Yrotation Xrotation
						JOINT RightForeArm
						{
							OFFSET -0.253742 -0.013329 -0.021401
							CHANNELS 3 Zrotation Yrotation Xrotation
							JOINT RightHand
							{
								OFFSET -0.255298 0.007772 -0.005559
								CHANNELS 3 Zrotation Yrotation Xrotation
								End Site
								{
									OFFSET 0.000000 0.000000 0.000000
								}
							}
						}
					}
				}
			}
		}
	}
}
MOTION
Frames: 16
Frame Time: 0.050000
0.050245 0.936744 1.469158 -4.335892 -1.280692 -5.194872 0.722907 -0.316338 -3.762268 0.515056 -0.544737 12.698993 -1.204775 -1.905926 1.319367 0.000000 0.000000 0.000000 3.369084 1.814226 -14.058622 0.805166 1.582426 42.111959 0.018053 -3.290198 7.229199 0.000000 0.000000 0.000000 -3.061320 -0.226105 14.582446 -2.835984 1.367391 -3.353944 -1.961365 5.373294 6.940804 4.410024 -0.355383 -21.258088 0.000000 0.000000 0.000000 -23.525506 -18.599577 6.893944 -36.467171 -24.202230 2.904990 4.998240 -15.533726 -0.182176 0.000000 0.000000 0.000000 16.743491 19.265473 9.832384 50.606533 38.556006 11.583755 -12.472645 25.515383 -1.514495 0.000000 0.000000 0.000000 
0.055771 0.938572 1.488662 -4.498056 -0.309855 -4.651563 0.395281 -0.219929 -2.519873 0.829737 -0.583971 11.527473 -1.587950 -2.787683 1.136426 0.000000 0.000000 0.000000 4.049025 2.260919 -16.816407 -0.377420 1.794308 38.385546 -0.314985 -1.973952 2.467066 0.000000 0.000000 0.000000 -2.892302 -0.261967 14.597012 -1.996818 0.990840 -2.521895 -2.672073 4.806062 6.010181 5.012916 -0.717912 -20.911011 0.000000 0.000000 0.000000 -22.582553 -19.982593 7.600972 -36.613014 -27.803755 4.051355 7.403097 -16.483871 -0.550807 0.000000 0.000000 0.000000 16.419083 17.898613 9.065926 52.167941 37.536296 11.661776 -13.255400 25.344089 -1.633091 0.000000 0.000000 0.000000 
0.060456 0.939947 1.509106 -4.504168 0.454100 -4.257028 0.159004 -0.077153 -0.860182 0.855633 -0.534624 10.059856 -1.944474 -3.583508 1.033369 0.000000 0.000000 0.000000 4.980624 2.633993 -18.606794 -1.686736 1.950745 32.524196 0.296789 -1.100592 3.789230 0.000000 0.000000 0.000000 -2.719876 -0.295100 14.576077 -1.473306 0.761408 -2.998024 -3.201928 4.046678 6.544802 5.353332 -0.915118 -21.206578 0.000000 0.000000 0.000000 -21.666086 -20.287270 7.848727 -36.541476 -30.922095 4.877530 9.358281 -18.607815 -0.945909 0.000000 0.000000 0.000000 16.417769 17.120128 8.600960 53.338322 35.706946 11.037048 -13.115771 25.701847 -1.617764 0.000000 0.000000 0.000000 
0.064183 0.940240 1.530682 -4.586482 1.457102 -3.604395 -0.051224 0.064454 0.727785 1.201285 -0.526732 8.318386 -2.322915 -4.575738 0.682478 0.000000 0.000000 0.000000 5.481549 2.990047 -20.715589 -1.677457 1.413502 24.100837 0.784746 -2.374307 9.670439 0.000000 0.000000 0.000000 -2.439632 -0.343093 14.538310 -0.645911 0.396854 -3.115923 -4.107811 3.315080 6.335003 5.328268 -0.940027 -20.916211 0.000000 0.000000 0.000000 -21.160465 -20.774262 8.107402 -36.982586 -33.490199 5.748665 10.649602 -18.480748 -1.147892 0.000000 0.000000 0.000000 17.051121 15.834902 8.014026 54.835740 33.819073 10.482237 -13.971030 25.982615 -1.781861 0.000000 0.000000 0.000000 
0.066610 0.939220 1.553202 -4.622222 1.498117 -2.499862 -0.485654 0.183645 1.935649 1.861784 -0.555207 6.684545 -2.192478 -4.666999 0.069257 0.000000 0.000000 0.000000 6.249512 3.386354 -22.573865 -1.407407 0.897571 15.037583 1.998269 -2.625967 16.774864 0.000000 0.000000 0.000000 -2.051877 -0.372304 14.127581 -0.921039 0.523974 -3.344022 -4.548065 2.611464 5.720250 5.728653 -1.206903 -21.007339 0.000000 0.000000 0.000000 -19.805702 -20.511032 8.047624 -37.886673 -35.150141 6.437531 12.006316 -18.694072 -1.369737 0.000000 0.000000 0.000000 17.727843 15.123573 7.586508 55.726863 31.536961 9.558104 -14.413293 26.821161 -1.951588 0.000000 0.000000 0.000000 
0.067326 0.937392 1.576616 -4.408730 2.344269 -1.469714 -0.875105 0.282955 2.856957 2.366823 -0.578867 5.658259 -2.375514 -5.444604 -0.543699 0.000000 0.000000 0.000000 6.744131 3.586955 -23.590933 -1.896576 0.753573 10.188942 4.562720 1.235705 18.670109 0.000000 0.000000 0.000000 -1.878831 -0.403572 14.188218 -1.007963 0.580001 -3.827466 -5.560699 2.156290 5.630654 5.930536 -1.267606 -21.185282 0.000000 0.000000 0.000000 -19.184473 -21.727176 8.635663 -36.934144 -37.254615 6.891219 12.306954 -16.496151 -1.239414 0.000000 0.000000 0.000000 19.590110 14.137372 7.346719 54.738449 30.784053 8.860242 -14.958773 27.282972 -2.079711 0.000000 0.000000 0.000000 
0.066144 0.934566 1.601981 -4.560845 2.746785 -1.008028 -0.667029 0.356954 3.749297 2.686185 -0.657067 6.095542 -2.232041 -5.806455 -1.581819 0.000000 0.000000 0.000000 8.289007 3.914195 -23.935377 -3.875927 1.137443 10.029428 7.318831 5.622195 19.540407 0.000000 0.000000 0.000000 -1.524435 -0.461080 14.379233 -1.237380 0.684038 -3.803960 -6.554883 1.626513 5.112832 7.048971 -1.994002 -20.501129 0.000000 0.000000 0.000000 -18.432019 -22.654599 9.107657 -35.478724 -38.523893 6.930647 12.400259 -14.155445 -1.060072 0.000000 0.000000 0.000000 20.587835 13.748710 7.209025 54.850420 30.210317 8.617442 -15.777404 27.796019 -2.306409 0.000000 0.000000 0.000000 
0.063380 0.932156 1.630458 -4.645407 3.217723 -0.371423 -0.176017 0.355417 4.022698 2.622746 -0.742319 7.579594 -2.233426 -6.159853 -2.093697 0.000000 0.000000 0.000000 9.464809 4.236488 -24.681109 -5.422891 1.636743 12.456851 8.364965 7.806498 18.935912 0.000000 0.000000 0.000000 -1.615636 -0.447182 14.173240 -1.567074 0.824806 -3.448859 -6.785793 0.829488 5.295457 7.086866 -1.875729 -21.826150 0.000000 0.000000 0.000000 -18.483785 -23.607201 9.809771 -33.559642 -39.540688 6.684629 13.367587 -12.393840 -1.011103 0.000000 0.000000 0.000000 20.758262 13.736584 7.079342 54.038352 30.042273 8.348980 -17.335082 28.373677 -2.732354 0.000000 0.000000 0.000000 
0.059623 0.931446 1.663313 -5.129804 4.233850 0.011127 1.257150 0.312068 4.617369 2.144842 -0.765839 9.174928 -2.813570 -7.006900 -1.416488 0.000000 0.000000 0.000000 10.430747 4.319180 -24.402034 -5.643967 1.861147 14.898414 7.892840 7.882347 17.559309 0.000000 0.000000 0.000000 -1.600262 -0.470549 14.237659 -1.322948 0.735662 -3.865212 -7.287099 -0.312358 5.227778 7.398439 -2.101175 -21.801407 0.000000 0.000000 0.000000 -18.290646 -23.680576 9.971994 -32.442475 -39.782323 6.434636 13.165572 -10.709449 -0.837808 0.000000 0.000000 0.000000 19.919466 13.149508 6.507318 54.139152 30.268344 8.554209 -19.072656 28.443967 -3.158634 0.000000 0.000000 0.000000 
0.055083 0.933565 1.700841 -5.726459 4.671388 0.810714 2.598703 0.192678 4.209034 2.081836 -0.990976 12.674500 -3.618962 -7.587612 0.260365 0.000000 0.000000 0.000000 11.545237 4.324686 -23.503698 -5.498310 1.897732 16.023641 7.632673 7.922009 16.755386 0.000000 0.000000 0.000000 -1.665503 -0.408340 12.772911 -0.954794 0.534838 -2.487088 -8.111724 -0.606655 3.511278 7.577107 -2.187278 -21.323480 0.000000 0.000000 0.000000 -18.335178 -22.626321 9.288068 -33.636467 -39.374034 6.799562 13.465532 -10.293695 -0.839927 0.000000 0.000000 0.000000 19.589315 12.459611 6.091230 53.665449 29.853341 8.439488 -20.664309 28.860628 -3.594976 0.000000 0.000000 0.000000 
0.050122 0.936483 1.741907 -6.515291 4.299551 1.184272 4.653078 -0.024035 2.208676 0.981950 -1.227164 20.367961 -5.053199 -8.214802 3.711628 0.000000 0.000000 0.000000 13.225363 4.255340 -21.635329 -5.580732 1.982005 16.744985 7.320878 8.510622 14.563257 0.000000 0.000000 0.000000 -1.001380 -0.414375 11.173815 -1.051790 0.604080 -3.518476 -8.704863 0.476315 3.815569 7.683880 -1.972249 -22.327584 0.000000 0.000000 0.000000 -18.809669 -21.884601 8.603881 -35.133833 -37.168980 6.596422 14.641438 -11.242058 -1.068357 0.000000 0.000000 0.000000 17.144546 11.497635 5.642962 54.601083 29.881312 8.706940 -21.279263 28.611212 -3.586252 0.000000 0.000000 0.000000 
0.045775 0.939684 1.783846 -7.187814 3.720678 0.024227 7.420083 -0.206755 -1.419325 -1.368705 -1.180279 33.456882 -8.174640 -9.433407 10.918553 0.000000 0.000000 0.000000 14.941864 3.605457 -17.174567 -5.885542 2.015122 15.987312 7.187937 9.381656 12.547155 0.000000 0.000000 0.000000 -1.053902 -0.425188 11.551329 -1.510612 0.818367 -4.163869 -8.778222 2.570857 3.402494 7.761497 -1.814394 -22.208060 0.000000 0.000000 0.000000 -18.798713 -22.549130 8.351685 -35.609727 -34.923095 6.207455 14.340525 -12.926449 -1.263036 0.000000 0.000000 0.000000 14.985954 10.801084 5.475717 54.368489 28.378014 8.014632 -21.571318 29.715702 -3.669294 0.000000 0.000000 0.000000 
0.043668 0.940247 1.824797 -7.305357 4.046910 -1.223703 9.202982 -0.262103 -6.166733 -2.485326 -1.499734 46.522860 -10.458573 -8.754452 18.242045 0.000000 0.000000 0.000000 15.477675 2.719998 -12.848653 -5.676480 1.905496 15.384728 6.578514 9.754521 10.010079 0.000000 0.000000 0.000000 -0.994892 -0.487326 12.619184 -1.902477 1.022083 -5.526888 -9.554411 4.012931 4.392386 8.697901 -2.038300 -22.855913 0.000000 0.000000 0.000000 -18.601997 -21.831959 7.398109 -36.151228 -34.591487 6.273069 14.921579 -13.897618 -1.507535 0.000000 0.000000 0.000000 14.559407 10.507150 5.675305 52.335003 27.031432 6.799732 -22.009665 30.372958 -3.694077 0.000000 0.000000 0.000000 
0.044767 0.941049 1.863806 -6.739548 4.395007 -1.445131 9.165180 -0.348715 -11.404719 -2.874840 -1.881802 54.693833 -9.656641 -4.879012 23.319177 0.000000 0.000000 0.000000 15.431565 1.888560 -9.253969 -6.316678 1.942146 13.994473 6.130880 10.189540 7.882367 0.000000 0.000000 0.000000 -1.557306 -0.419204 12.433799 -3.021778 1.502411 -6.171895 -9.235269 4.900904 4.670831 9.009624 -2.431580 -21.045465 0.000000 0.000000 0.000000 -17.661571 -21.564123 6.952712 -37.138809 -34.056970 6.316382 15.528389 -16.182560 -1.906407 0.000000 0.000000 0.000000 13.674092 9.853755 5.424663 51.822341 25.987987 6.215037 -21.432824 30.577609 -3.491529 0.000000 0.000000 0.000000 
0.048713 0.942794 1.900864 -6.352078 5.030367 -2.255990 9.141985 -0.484176 -16.937999 -3.340341 -2.012884 57.956965 -6.585581 -0.312853 24.017525 0.000000 0.000000 0.000000 15.124666 1.245805 -6.420007 -6.417517 2.012136 14.724107 5.716580 9.980450 6.890490 0.000000 0.000000 0.000000 -2.070205 -0.395509 12.952262 -3.869989 1.870714 -5.353626 -8.859524 6.373072 4.078173 9.487722 -2.707968 -19.991468 0.000000 0.000000 0.000000 -16.777743 -21.207046 6.253156 -38.269323 -34.609138 6.807935 16.646370 -18.443766 -2.496249 0.000000 0.000000 0.000000 14.174371 9.054067 5.408560 50.435468 24.112194 5.056899 -20.872061 30.051345 -3.166382 0.000000 0.000000 0.000000 
0.055427 0.943761 1.936264 -5.575252 5.952168 -2.748116 8.795011 -0.786844 -23.124348 -3.902996 -1.743553 55.919081 -1.798252 3.075614 14.518995 0.000000 0.000000 0.000000 14.029489 0.623787 -3.708861 -6.194031 1.971083 15.168264 5.170424 9.644990 5.596967 0.000000 0.000000 0.000000 -3.115204 -0.319105 13.702331 -3.956769 1.923328 -5.654243 -8.629336 7.615184 4.180608 10.391364 -3.177481 -19.483704 0.000000 0.000000 0.000000 -16.617746 -20.905867 5.653237 -38.669699 -34.802046 7.005368 16.242737 -20.426596 -2.797759 0.000000 0.000000 0.000000 14.409378 8.222247 5.323721 50.625733 21.583346 3.901356 -20.453862 29.342409 -2.856547 0.000000 0.000000 0.000000 
